<?xml version="1.0" standalone="no"?>
<!DOCTYPE svg PUBLIC "-//W3C//DTD SVG 20010904//EN"
 "http://www.w3.org/TR/2001/REC-SVG-20010904/DTD/svg10.dtd">
<svg version="1.0" xmlns="http://www.w3.org/2000/svg"
 width="200.000000pt" height="200.000000pt" viewBox="0 0 200.000000 200.000000"
 preserveAspectRatio="xMidYMid meet">
<metadata>
Created by potrace 1.14, written by Peter Selinger 2001-2017
</metadata>
<g transform="translate(0.000000,200.000000) scale(0.100000,-0.100000)"
fill="#000000" stroke="none">
<path d="M885 1889 c-377 -48 -679 -327 -762 -703 -46 -211 8 -497 128 -673
57 -84 121 -153 141 -153 10 0 17 -4 14 -9 -8 -12 75 -84 139 -121 60 -35 65
-36 65 -14 0 8 5 12 11 9 6 -4 8 -13 5 -21 -6 -17 15 -29 98 -54 101 -32 164
-41 269 -41 105 -1 240 19 231 32 -3 5 1 6 9 3 22 -8 158 48 244 102 94 58
216 176 271 262 113 175 167 414 140 614 -9 70 -47 208 -57 206 -18 -2 -24 3
-13 11 11 7 8 19 -14 62 -118 235 -343 413 -592 470 -64 15 -266 25 -327 18z
m5 -69 c0 -5 -2 -10 -4 -10 -3 0 -8 5 -11 10 -3 6 -1 10 4 10 6 0 11 -4 11
-10z m-15 -20 c3 -5 -1 -10 -9 -10 -9 0 -16 5 -16 10 0 6 4 10 9 10 6 0 13 -4
16 -10z m465 -20 c0 -5 -5 -10 -11 -10 -5 0 -7 5 -4 10 3 6 8 10 11 10 2 0 4
-4 4 -10z m-320 -30 c0 -5 -4 -10 -10 -10 -5 0 -10 5 -10 10 0 6 5 10 10 10 6
0 10 -4 10 -10z m-310 -70 c0 -5 -4 -10 -10 -10 -5 0 -10 5 -10 10 0 6 5 10
10 10 6 0 10 -4 10 -10z m805 -9 c3 -5 1 -12 -5 -16 -5 -3 -10 1 -10 9 0 18 6
21 15 7z m35 -20 c0 -6 -4 -13 -10 -16 -5 -3 -10 1 -10 9 0 9 5 16 10 16 6 0
10 -4 10 -9z m-390 -11 c0 -5 -4 -10 -10 -10 -5 0 -10 5 -10 10 0 6 5 10 10
10 6 0 10 -4 10 -10z m15 -39 c7 -12 -12 -24 -25 -16 -11 7 -4 25 10 25 5 0
11 -4 15 -9z m503 -121 c0 -43 -15 -63 -24 -33 -3 10 -10 27 -16 37 -8 15 -7
22 7 32 25 19 34 9 33 -36z m-1353 -50 c-5 -8 -11 -8 -17 -2 -6 6 -7 16 -3 22
5 8 11 8 17 2 6 -6 7 -16 3 -22z m360 -20 c3 -5 -1 -10 -10 -10 -9 0 -13 5
-10 10 3 6 8 10 10 10 2 0 7 -4 10 -10z m-275 -10 c0 -5 -4 -10 -10 -10 -5 0
-10 5 -10 10 0 6 5 10 10 10 6 0 10 -4 10 -10z m110 -10 c0 -5 -4 -10 -10 -10
-5 0 -10 5 -10 10 0 6 5 10 10 10 6 0 10 -4 10 -10z m1268 -18 c2 -7 -3 -12
-12 -12 -9 0 -16 7 -16 16 0 17 22 14 28 -4z m-1178 -72 c0 -5 -4 -10 -10 -10
-5 0 -10 5 -10 10 0 6 5 10 10 10 6 0 10 -4 10 -10z m1040 -10 c0 -5 -4 -10
-10 -10 -5 0 -10 5 -10 10 0 6 5 10 10 10 6 0 10 -4 10 -10z m-1330 -30 c0 -5
-4 -10 -10 -10 -5 0 -10 5 -10 10 0 6 5 10 10 10 6 0 10 -4 10 -10z m1130 -40
c0 -5 -4 -10 -10 -10 -5 0 -10 5 -10 10 0 6 5 10 10 10 6 0 10 -4 10 -10z
m-1070 -30 c0 -5 -5 -10 -11 -10 -5 0 -7 5 -4 10 3 6 8 10 11 10 2 0 4 -4 4
-10z m200 -50 c0 -5 -4 -10 -10 -10 -5 0 -10 5 -10 10 0 6 5 10 10 10 6 0 10
-4 10 -10z m-10 -60 c0 -5 -4 -10 -10 -10 -5 0 -10 5 -10 10 0 6 5 10 10 10 6
0 10 -4 10 -10z m-348 -65 c0 -5 -5 -11 -11 -13 -6 -2 -11 4 -11 13 0 9 5 15
11 13 6 -2 11 -8 11 -13z m708 5 c0 -5 -4 -10 -10 -10 -5 0 -10 5 -10 10 0 6
5 10 10 10 6 0 10 -4 10 -10z m780 -60 c0 -5 -2 -10 -4 -10 -3 0 -8 5 -11 10
-3 6 -1 10 4 10 6 0 11 -4 11 -10z m-33 -25 c5 -16 -22 -55 -39 -55 -12 0 -10
44 4 58 16 16 27 15 35 -3z m-767 -100 c10 -13 9 -15 -8 -15 -22 0 -36 13 -25
24 10 10 20 7 33 -9z m510 -5 c0 -5 -2 -10 -4 -10 -3 0 -8 5 -11 10 -3 6 -1
10 4 10 6 0 11 -4 11 -10z m-60 -30 c0 -5 -4 -10 -10 -10 -5 0 -10 5 -10 10 0
6 5 10 10 10 6 0 10 -4 10 -10z m-1090 -10 c0 -5 -2 -10 -4 -10 -3 0 -8 5 -11
10 -3 6 -1 10 4 10 6 0 11 -4 11 -10z m1395 -60 c3 -5 1 -10 -4 -10 -6 0 -11
5 -11 10 0 6 2 10 4 10 3 0 8 -4 11 -10z m-1195 -15 c0 -8 -4 -15 -10 -15 -5
0 -10 7 -10 15 0 8 5 15 10 15 6 0 10 -7 10 -15z m579 -77 c-1 -7 1 -20 5 -30
15 -34 2 -82 -26 -98 -25 -13 -31 -13 -55 0 -25 14 -31 14 -54 1 -22 -12 -32
-13 -53 -3 -25 11 -27 16 -24 65 l3 52 38 3 c21 2 44 -2 52 -8 9 -8 15 -8 20
0 3 5 22 10 41 10 19 0 34 5 34 10 0 6 5 10 10 10 6 0 10 -6 9 -12z m-701 -20
c9 -9 15 -9 24 0 16 16 70 16 86 0 9 -9 15 -9 24 0 15 15 84 16 94 1 4 -8 9
-8 17 0 14 14 84 14 92 1 5 -8 11 -8 20 0 8 6 31 10 52 8 l38 -3 3 -52 c3 -49
1 -54 -23 -65 -22 -10 -32 -9 -53 3 -24 13 -30 13 -55 -1 -24 -14 -30 -13 -55
1 -24 14 -31 14 -50 1 -23 -15 -82 -8 -82 9 0 6 -10 3 -22 -5 -27 -20 -63 -21
-80 -3 -10 11 -17 11 -39 -2 -21 -12 -34 -13 -56 -6 -24 9 -28 16 -31 53 -2
24 2 50 9 58 14 17 70 19 87 2z m840 0 c9 -9 15 -9 24 0 16 16 70 16 86 0 9
-9 15 -9 24 0 16 16 70 16 86 0 9 -9 15 -9 24 0 16 16 70 16 86 0 9 -9 15 -9
24 0 15 15 62 16 88 2 13 -7 21 -7 25 0 7 11 54 13 79 4 12 -4 16 -20 16 -55
0 -39 -4 -51 -21 -59 -22 -12 -79 -4 -79 11 0 6 -10 3 -22 -5 -28 -20 -62 -20
-81 -2 -12 13 -19 11 -48 -14 -43 -37 -55 -37 -62 0 l-6 29 -30 -17 c-25 -14
-35 -15 -60 -5 -24 8 -38 8 -62 0 -24 -10 -35 -9 -57 4 -23 13 -30 13 -40 2
-15 -16 -46 -17 -73 -3 -14 8 -19 21 -19 53 0 51 13 67 55 67 17 0 36 -5 43
-12z m-28 -178 c0 -5 -2 -10 -4 -10 -3 0 -8 5 -11 10 -3 6 -1 10 4 10 6 0 11
-4 11 -10z m360 -10 c0 -5 -4 -10 -10 -10 -5 0 -10 5 -10 10 0 6 5 10 10 10 6
0 10 -4 10 -10z m-330 -20 c0 -5 -4 -10 -10 -10 -5 0 -10 5 -10 10 0 6 5 10
10 10 6 0 10 -4 10 -10z m-76 -79 c3 -5 0 -11 -8 -14 -15 -6 -26 1 -26 15 0
11 27 10 34 -1z m256 -1 c0 -5 -4 -10 -10 -10 -5 0 -10 5 -10 10 0 6 5 10 10
10 6 0 10 -4 10 -10z m-252 -81 c-2 -6 -8 -10 -13 -10 -5 0 -11 4 -13 10 -2 6
4 11 13 11 9 0 15 -5 13 -11z m-148 -23 c0 -3 -4 -8 -10 -11 -5 -3 -10 -1 -10
4 0 6 5 11 10 11 6 0 10 -2 10 -4z m-130 -46 c0 -5 -4 -10 -10 -10 -5 0 -10 5
-10 10 0 6 5 10 10 10 6 0 10 -4 10 -10z m95 -50 c-3 -5 -11 -10 -16 -10 -6 0
-7 5 -4 10 3 6 11 10 16 10 6 0 7 -4 4 -10z"/>
<path d="M889 583 c5 -37 6 -37 9 -8 2 16 9 33 15 37 8 5 4 8 -8 8 -18 0 -20
-5 -16 -37z"/>
<path d="M986 611 c-3 -4 6 -6 19 -3 14 2 25 6 25 8 0 8 -39 4 -44 -5z"/>
<path d="M315 610 c3 -5 8 -10 11 -10 2 0 4 5 4 10 0 6 -5 10 -11 10 -5 0 -7
-4 -4 -10z"/>
<path d="M419 613 c19 -4 22 -10 19 -34 -3 -18 -1 -26 5 -20 5 5 7 19 5 32 -2
17 -10 24 -28 26 -24 1 -24 1 -1 -4z"/>
<path d="M628 613 c6 -2 18 -2 25 0 6 3 1 5 -13 5 -14 0 -19 -2 -12 -5z"/>
<path d="M549 582 c-3 -20 -2 -29 4 -23 5 5 7 19 5 32 -3 20 -5 19 -9 -9z"/>
<path d="M724 579 c-9 -15 11 -32 32 -26 15 4 14 5 -5 6 -16 1 -21 5 -17 16 6
17 0 20 -10 4z"/>
<path d="M1237 613 c-10 -9 -9 -51 2 -57 4 -3 6 6 3 20 -3 16 1 30 9 35 8 5 9
9 3 9 -6 0 -14 -3 -17 -7z"/>
<path d="M1344 606 c-3 -8 -4 -25 -2 -38 3 -17 5 -13 9 15 5 38 2 47 -7 23z"/>
<path d="M1456 612 c-3 -5 6 -7 21 -4 24 5 25 3 21 -27 -3 -19 -1 -28 5 -22
16 16 3 56 -20 59 -11 2 -24 -1 -27 -6z"/>
<path d="M1564 606 c-9 -23 0 -51 16 -52 11 -1 11 0 2 3 -9 3 -12 15 -10 34 5
31 1 38 -8 15z"/>
<path d="M1596 607 c3 -10 9 -15 12 -12 3 3 0 11 -7 18 -10 9 -11 8 -5 -6z"/>
<path d="M1141 594 c0 -11 3 -14 6 -6 3 7 2 16 -1 19 -3 4 -6 -2 -5 -13z"/>
<path d="M1171 594 c0 -11 3 -14 6 -6 3 7 2 16 -1 19 -3 4 -6 -2 -5 -13z"/>
</g>
</svg>
